<svg xmlns="http://www.w3.org/2000/svg" viewBox="0 0 512 512">
  <rect width="512" height="512" fill="#030811"/>
  <polygon points="256,30 458,142 458,370 256,482 54,370 54,142" fill="#060d14" stroke="#00ff88" stroke-width="8" stroke-linejoin="round"/>
  <polygon points="256,74 418,164 418,344 256,434 94,344 94,164" fill="none" stroke="rgba(0,255,136,0.15)" stroke-width="2"/>
  <polyline points="118,162 118,204 162,204" fill="none" stroke="#00ff88" stroke-width="3.5" stroke-linecap="round" stroke-linejoin="round" opacity="0.4"/>
  <circle cx="118" cy="162" r="6" fill="#00ff88" opacity="0.55"/>
  <circle cx="162" cy="204" r="4" fill="#00cc66" opacity="0.45"/>
  <polyline points="394,162 394,204 350,204" fill="none" stroke="#00ff88" stroke-width="3.5" stroke-linecap="round" stroke-linejoin="round" opacity="0.4"/>
  <circle cx="394" cy="162" r="6" fill="#00ff88" opacity="0.55"/>
  <circle cx="350" cy="204" r="4" fill="#00cc66" opacity="0.45"/>
  <polyline points="118,350 118,308 162,308" fill="none" stroke="#00ff88" stroke-width="3.5" stroke-linecap="round" stroke-linejoin="round" opacity="0.4"/>
  <circle cx="118" cy="350" r="6" fill="#00ff88" opacity="0.55"/>
  <polyline points="394,350 394,308 350,308" fill="none" stroke="#00ff88" stroke-width="3.5" stroke-linecap="round" stroke-linejoin="round" opacity="0.4"/>
  <circle cx="394" cy="350" r="6" fill="#00ff88" opacity="0.55"/>
  <line x1="162" y1="256" x2="94" y2="256" stroke="#00ff88" stroke-width="2" opacity="0.2"/>
  <line x1="350" y1="256" x2="418" y2="256" stroke="#00ff88" stroke-width="2" opacity="0.2"/>
  <text x="256" y="322" font-family="'Courier New',Courier,monospace" font-size="208" font-weight="900" fill="#00ff88" text-anchor="middle" letter-spacing="-10">CS</text>
  <text x="256" y="322" font-family="'Courier New',Courier,monospace" font-size="208" font-weight="900" fill="none" stroke="#00ff88" stroke-width="1.5" opacity="0.25" text-anchor="middle" letter-spacing="-10">CS</text>
  <line x1="148" y1="360" x2="364" y2="360" stroke="#00cc66" stroke-width="3" opacity="0.55"/>
  <text x="256" y="418" font-family="'Courier New',Courier,monospace" font-size="30" fill="#00aa55" text-anchor="middle" letter-spacing="16">LABS</text>
  <circle cx="256" cy="68" r="7" fill="#00ff88" opacity="0.7"/>
</svg>
